<svg xmlns="http://www.w3.org/2000/svg" width="30" height="15" viewBox="0 0 30 15"><defs><linearGradient id="glaze" x1="0" y1="0" x2="0.25" y2="1"><stop offset="0" stop-color="#fff" stop-opacity="0.5"/><stop offset="0.16" stop-color="#fff" stop-opacity="0.1"/><stop offset="0.7" stop-color="#fff" stop-opacity="0"/><stop offset="1" stop-color="#000" stop-opacity="0.12"/></linearGradient><filter id="surf" x="0" y="0" width="30" height="15" filterUnits="userSpaceOnUse" color-interpolation-filters="sRGB"><feTurbulence type="fractalNoise" baseFrequency="1.6" numOctaves="2" seed="61" stitchTiles="stitch" result="gn"/><feColorMatrix in="gn" type="saturate" values="0" result="gm"/><feComponentTransfer in="gm" result="grain"><feFuncR type="linear" slope="0.6" intercept="0.2"/><feFuncG type="linear" slope="0.6" intercept="0.2"/><feFuncB type="linear" slope="0.6" intercept="0.2"/><feFuncA type="linear" slope="0" intercept="1"/></feComponentTransfer><feTurbulence type="fractalNoise" baseFrequency="0.12" numOctaves="3" seed="68" stitchTiles="stitch" result="cn"/><feColorMatrix in="cn" type="saturate" values="0" result="cm"/><feComponentTransfer in="cm" result="cloud"><feFuncR type="linear" slope="0.8" intercept="0.1"/><feFuncG type="linear" slope="0.8" intercept="0.1"/><feFuncB type="linear" slope="0.8" intercept="0.1"/><feFuncA type="linear" slope="0" intercept="1"/></feComponentTransfer><feBlend in="cloud" in2="SourceGraphic" mode="soft-light" result="b1"/><feBlend in="grain" in2="b1" mode="soft-light" result="b2"/><feComposite in="b2" in2="SourceGraphic" operator="in"/></filter></defs><rect width="30" height="15" fill="#d4cfc5"/><g filter="url(#surf)"><rect x="0.15" y="0.15" width="14.7" height="7.2" rx="0.45" fill="#f5f3ee"/><rect x="0.15" y="0.15" width="14.7" height="7.2" rx="0.45" fill="url(#glaze)"/><rect x="15.15" y="0.15" width="14.7" height="7.2" rx="0.45" fill="#f5f3ee"/><rect x="15.15" y="0.15" width="14.7" height="7.2" rx="0.45" fill="url(#glaze)"/><rect x="-7.35" y="7.65" width="14.7" height="7.2" rx="0.45" fill="#f5f3ee"/><rect x="-7.35" y="7.65" width="14.7" height="7.2" rx="0.45" fill="url(#glaze)"/><rect x="7.65" y="7.65" width="14.7" height="7.2" rx="0.45" fill="#f5f3ee"/><rect x="7.65" y="7.65" width="14.7" height="7.2" rx="0.45" fill="url(#glaze)"/><rect x="22.65" y="7.65" width="14.7" height="7.2" rx="0.45" fill="#f5f3ee"/><rect x="22.65" y="7.65" width="14.7" height="7.2" rx="0.45" fill="url(#glaze)"/></g></svg>
